# xmcd
#
# Track frame offsets: 
#        150
#        21119
#        39509
#        56177
#        76429
#        92574
#        117259
#        131845
#        145439
#        161445
#        178194
#        197368
#        215972
#        232100
#
# Disc length: 3349 seconds
#
# Revision: 0
# Processed by: cddbd v1.5.2PL0 Copyright (c) Steve Scherf et al.
# Submitted via: ExactAudioCopy v1.0b4
#
DISCID=cd0d130e
DTITLE=Jay Stollman - Room For One More (Feat. Debbie Davies)
DYEAR=2015
DGENRE=Blues Rock
TTITLE0=Ride Till I'm Satisfied
TTITLE1=I'm Done
TTITLE2=Tired Of Tryin'
TTITLE3=Lonesome In My Bedroom
TTITLE4=I'd Rather Drink Muddy Water
TTITLE5=A Change Is Gonna Come
TTITLE6=Pucker Up Buttercup
TTITLE7=Back To Memphis
TTITLE8=Tumble
TTITLE9=Can't Slow Down
TTITLE10=Another Night To Cry
TTITLE11=Devil In Disguise
TTITLE12=Love Me and Leave Me
TTITLE13=Room For One More
EXTD=
EXTT0=
EXTT1=
EXTT2=
EXTT3=
EXTT4=
EXTT5=
EXTT6=
EXTT7=
EXTT8=
EXTT9=
EXTT10=
EXTT11=
EXTT12=
EXTT13=
PLAYORDER=
